<?xml version="1.0" encoding="utf-8"?>
<!-- Generator: Adobe Illustrator 22.1.0, SVG Export Plug-In . SVG Version: 6.00 Build 0)  -->
<svg version="1.1" id="Layer_1" xmlns="http://www.w3.org/2000/svg" xmlns:xlink="http://www.w3.org/1999/xlink" x="0px" y="0px"
	 width="123px" height="13px" viewBox="0 0 123 13" style="enable-background:new 0 0 123 13;" xml:space="preserve">
<style type="text/css">
	.st0{fill:#FF8E11;}
</style>
<path id="Combined-Shape" class="st0" d="M115.3,1.2c0-0.2,0.1-0.4,0.2-0.6c0.1,0,0.1,0.1,0.2,0.1l0.4,0.2l0.4,0.2l0.1,0.1
	c0.2,0.1,0.3,0.2,0.4,0.4c0.1,0.1,0.3,0.3,0.4,0.5l0.4,0.5l0.2,0.3l0.1,0.1c0.3,0.4,0.8,0.8,1.2,1.2c0.2,0.2,0.5,0.4,0.7,0.5
	l0.2,0.1l0.7,0.5c0.1,0.1,0.2,0.1,0.4,0.2l0.2,0.1c0.1,0,0.2,0.1,0.2,0.1l1.4,0.7l-1.4,0.5l-1.3,0.6l-0.1,0.1L119.8,8l-0.3,0.3
	c-0.1,0.1-0.2,0.2-0.3,0.3L119,8.8c-0.3,0.3-0.7,0.7-0.9,1l-0.3,0.3c0,0.1-0.1,0.1-0.1,0.2l-0.2,0.3l-0.4,0.6
	c-0.4,0.5-0.8,0.7-1.4,1l-0.4,0.2c-0.2-0.9-0.3-1.6,0.2-2.4l0.1-0.2l0.2-0.2l0.3-0.5c0.4-0.6,1-1.2,1.6-1.8c0.3-0.3,0.6-0.5,0.8-0.7
	c0.1-0.1,0.3-0.2,0.4-0.3l0.1-0.1l-0.4-0.3c-0.2-0.1-0.4-0.3-0.5-0.4c-0.5-0.5-1.1-1-1.5-1.4c-0.1-0.2-0.3-0.3-0.4-0.4L116,3.4
	L115.7,3c-0.1-0.2-0.2-0.4-0.3-0.6c-0.1-0.2-0.1-0.4-0.1-0.6c0-0.1,0-0.2,0-0.3C115.3,1.4,115.3,1.3,115.3,1.2z M117.5,6.6
	c-4.3,1.3-10.8,1.3-19.5,0C106.7,5.3,113.2,5.3,117.5,6.6z"/>
<path id="Connectwithus_x21_" class="st0" d="M5.7,2.3c0.2,0,0.5,0.2,0.8,0.6s0.4,0.8,0.4,1c0,0.3-0.1,0.4-0.2,0.4s-0.2,0-0.3-0.1
	s-0.3,0-0.5,0C5.5,4.2,5,4.5,4.5,5C3.9,5.6,3.4,6.2,3,7C2.6,7.7,2.4,8.4,2.4,8.9c0,0.3,0,0.5,0.1,0.6C2.6,9.6,2.8,9.7,3,9.7
	c0.6,0,1.2-0.1,1.8-0.3S5.9,9,6.3,8.9c0.3-0.2,0.5-0.3,0.6-0.3s0.1,0,0.2,0.1S7.2,8.9,7.2,9c0,0.3-0.2,0.6-0.7,1s-1,0.7-1.6,1
	s-1.2,0.4-1.7,0.4S2,11.2,1.4,10.6S0.5,9.4,0.5,8.8c0-0.8,0.3-1.7,0.8-2.7s1.2-1.9,2-2.7S4.9,2.3,5.7,2.3z M9.6,10.3
	c0.5-0.2,0.8-0.6,1.2-1.2s0.5-1.2,0.5-1.7s-0.1-0.9-0.2-1.1C10.7,6.5,10.4,7,10,7.6C9.6,8.3,9.5,8.9,9.5,9.4
	C9.5,9.8,9.5,10.1,9.6,10.3z M7.8,9.4c0-1.1,0.3-2,1-3C9.5,5.5,10.1,5,10.7,5c0.6,0,1.2,0.2,1.6,0.7c0.4,0.4,0.7,1,0.7,1.6
	s-0.2,1.3-0.5,1.9c-0.3,0.7-0.7,1.2-1.3,1.6s-1.1,0.6-1.8,0.6c-0.5,0-0.9-0.2-1.2-0.6C7.9,10.5,7.8,10,7.8,9.4z M17.8,5
	c0.4,0,0.8,0.2,1.2,0.6s0.5,0.8,0.5,1.3c0,0.7-0.1,1.5-0.3,2.2c-0.2,0.8-0.5,1.4-0.8,1.8c-0.3,0.4-0.6,0.6-0.8,0.6
	c-0.3,0-0.4-0.2-0.4-0.6c0-0.3,0.1-0.9,0.4-1.8c0.2-0.8,0.3-1.3,0.3-1.6s0-0.5-0.1-0.5s-0.2,0.1-0.3,0.2c-0.1,0.1-0.2,0.2-0.3,0.3
	c-0.1,0-0.2,0.2-0.3,0.3S16.7,8,16.7,8.2c-0.1,0.1-0.1,0.2-0.2,0.4S16.3,8.9,16.3,9c-0.1,0.1-0.1,0.2-0.2,0.4
	c-0.8,1.5-1.4,2.2-1.8,2.2c-0.2,0-0.4-0.2-0.7-0.5s-0.4-0.5-0.4-0.7c0-0.1,0.1-0.3,0.2-0.6c0.1-0.3,0.2-0.5,0.3-0.7s0.1-0.3,0.1-0.5
	s0.1-0.4,0.1-0.6c0-0.2,0-0.4,0.1-0.5c0-0.1,0-0.3,0-0.6c-0.1-1.1,0-1.7,0-1.8c0.1-0.1,0.1-0.2,0.2-0.2c0.3,0,0.6,0.1,0.9,0.4
	c0.3,0.3,0.4,0.5,0.4,0.7c0,0.5-0.1,1.3-0.4,2.2c0.5-1,1-1.7,1.5-2.3S17.5,5,17.8,5z M24.4,5c0.4,0,0.8,0.2,1.2,0.6S26,6.4,26,6.9
	c0,0.7-0.1,1.5-0.3,2.2s-0.5,1.4-0.8,1.8c-0.3,0.4-0.6,0.6-0.8,0.6c-0.3,0-0.4-0.2-0.4-0.6c0-0.3,0.1-0.9,0.4-1.8
	c0.2-0.8,0.3-1.3,0.3-1.6s0-0.5-0.1-0.5S24.1,7.1,24,7.2c-0.1,0.1-0.2,0.2-0.3,0.3c-0.1,0.1-0.1,0.2-0.2,0.3S23.3,8,23.3,8.2
	c-0.1,0.1-0.1,0.2-0.2,0.4S22.9,8.9,22.9,9c-0.1,0.1-0.1,0.2-0.2,0.4c-0.8,1.5-1.4,2.2-1.8,2.2c-0.2,0-0.4-0.2-0.7-0.5
	c-0.3-0.3-0.4-0.5-0.4-0.7c0-0.1,0.1-0.3,0.2-0.6s0.2-0.5,0.3-0.7c0.1-0.2,0.1-0.3,0.1-0.5s0.1-0.4,0.1-0.6c0-0.2,0-0.4,0.1-0.5
	s0-0.3,0-0.6c0.1-1.1,0.1-1.7,0.2-1.8C20.9,5,20.9,4.9,21,4.9c0.3,0,0.6,0.1,0.9,0.4s0.4,0.5,0.4,0.7c0,0.5-0.1,1.3-0.4,2.2
	c0.5-1,1-1.7,1.5-2.3C23.7,5.3,24.1,5,24.4,5z M32,7.4c0,0.4-0.3,0.8-0.8,1.1C30.6,8.8,30.1,9,29.5,9s-1.1,0-1.4-0.1
	C28,9.1,28,9.4,28,9.6s0,0.4,0.1,0.5s0.3,0.1,0.6,0.1c0.6,0,1.2-0.1,1.6-0.2C30.7,9.9,31,9.8,31,9.8c0.3,0,0.5,0.1,0.5,0.3
	c0,0.3-0.3,0.6-0.8,0.9c-0.5,0.3-1.2,0.4-1.9,0.4s-1.3-0.2-1.7-0.7s-0.6-1-0.6-1.6s0.2-1.2,0.5-1.9s0.8-1.2,1.3-1.7
	c0.5-0.4,1.1-0.7,1.6-0.7s1,0.3,1.5,0.8S32,6.9,32,7.4z M30.5,7.2c0-0.1-0.1-0.2-0.3-0.4c-0.2-0.2-0.3-0.2-0.5-0.2s-0.4,0.1-0.6,0.3
	s-0.5,0.5-0.7,0.9c0.1,0,0.2,0,0.3,0C30,7.8,30.5,7.6,30.5,7.2z M32.1,9.6c0-0.6,0.2-1.2,0.6-1.9c0.4-0.7,0.9-1.3,1.5-1.8
	s1.2-0.8,1.8-0.8c0.3,0,0.6,0.2,0.9,0.6c0.3,0.4,0.5,0.7,0.5,1c0,0.2-0.1,0.3-0.3,0.3c-0.1,0-0.2,0-0.4-0.1
	c-0.3-0.2-0.5-0.2-0.7-0.2s-0.4,0.2-0.8,0.5s-0.6,0.7-0.9,1.1c-0.3,0.4-0.4,0.8-0.4,1c0,0.3,0,0.4,0.1,0.5s0.3,0.1,0.7,0.1
	s0.7,0,1-0.1s0.5-0.1,0.7-0.2c0.1-0.1,0.3-0.1,0.4-0.1c0.2,0,0.4,0.1,0.4,0.3c0,0.4-0.3,0.7-1,1.1c-0.6,0.4-1.3,0.6-1.9,0.6
	c-0.4,0-0.9-0.2-1.4-0.7C32.4,10.4,32.1,10,32.1,9.6z M41.1,6.5c-0.1,0.2-0.2,0.5-0.3,1c-0.1,0.4-0.3,0.9-0.5,1.5S40,9.9,40,10
	s0.1,0.1,0.2,0.1s0.5-0.1,1-0.3s0.8-0.3,0.9-0.3c0.2,0,0.3,0.1,0.3,0.4s-0.3,0.6-0.8,1c-0.6,0.4-1.2,0.6-1.8,0.6
	c-0.3,0-0.6-0.1-1-0.4c-0.4-0.3-0.6-0.6-0.6-0.9c0-0.3,0.1-0.8,0.4-1.6c0.3-0.8,0.4-1.4,0.5-1.7C38.8,7,38.5,7,38.4,7
	c-0.2,0-0.3-0.1-0.5-0.3S37.6,6.2,37.6,6c0-0.3,0.7-0.5,2-0.7c0.2-0.8,0.2-1.5,0.2-2c0-0.3,0.1-0.4,0.4-0.4c0.2,0,0.5,0.1,0.8,0.4
	s0.5,0.5,0.5,0.8s-0.1,0.6-0.2,1.1c0.4,0,0.7,0,0.9,0c0.6,0,0.9,0.1,0.9,0.4c0,0.2-0.2,0.3-0.5,0.5C42.4,6.2,41.9,6.4,41.1,6.5z
	 M55.2,5c0.2,0,0.5,0.1,0.8,0.2c0.3,0.2,0.4,0.3,0.4,0.5S56.3,6.5,56,7.5c-0.3,1-0.7,1.9-1.3,2.7s-1.1,1.2-1.4,1.2
	c-0.1,0-0.3-0.1-0.5-0.3s-0.4-0.4-0.5-0.6c-0.2-0.3-0.3-1.4-0.3-3c-0.4,1.2-0.8,2.1-1.2,2.8c-0.5,0.7-0.8,1-1.1,1
	c-0.1,0-0.3-0.1-0.5-0.3s-0.4-0.3-0.5-0.5c-0.2-0.5-0.4-1.3-0.5-2.6c-0.2-1.3-0.3-2.2-0.3-2.6c0-0.3,0.1-0.5,0.4-0.5
	c0.3,0,0.6,0.2,1,0.6c0.3,0.4,0.5,0.7,0.5,0.9c0,1.2,0,2.2,0,2.9c0.3-0.5,0.6-1.2,0.9-1.9c0.3-0.8,0.5-1.4,0.7-1.8s0.3-0.7,0.5-0.7
	c0.4,0,0.7,0.2,1.1,0.5c0.4,0.4,0.5,0.7,0.5,1.1c0,0.2,0,0.5-0.1,1s-0.1,0.9-0.1,1.2s0,0.5,0.1,0.7c0.3-0.3,0.5-0.7,0.7-1.2
	s0.4-1,0.4-1.5C54.7,5.6,54.9,5,55.2,5z M57.4,3.5c0-0.2,0.1-0.4,0.3-0.7c0.2-0.2,0.4-0.3,0.6-0.3c0.2,0,0.4,0.2,0.7,0.7
	s0.4,0.8,0.4,1s-0.1,0.4-0.2,0.5c-0.2,0-0.3,0-0.5,0s-0.5-0.2-0.8-0.5S57.4,3.7,57.4,3.5z M57.6,5c0.3,0,0.6,0.2,0.8,0.5
	s0.3,0.7,0.3,1c0,0.2-0.1,0.7-0.4,1.7s-0.6,1.9-0.9,2.8c-0.1,0.3-0.3,0.5-0.6,0.5c-0.2,0-0.3-0.1-0.5-0.2c-0.1-0.1-0.2-0.3-0.2-0.5
	s0.1-0.8,0.3-1.7s0.4-1.6,0.5-2.3c0.1-0.6,0.2-1.1,0.3-1.4C57.3,5.2,57.4,5,57.6,5z M62.3,6.5c-0.1,0.2-0.2,0.5-0.3,1
	c-0.1,0.4-0.3,0.9-0.5,1.5s-0.3,0.9-0.3,1s0.1,0.1,0.2,0.1s0.5-0.1,1-0.3s0.8-0.3,0.9-0.3c0.2,0,0.3,0.1,0.3,0.4s-0.3,0.6-0.8,1
	s-1.2,0.6-1.8,0.6c-0.3,0-0.6-0.1-1-0.4c-0.4-0.3-0.6-0.6-0.6-0.9c0-0.3,0.1-0.8,0.4-1.6c0.3-0.8,0.4-1.4,0.5-1.7
	C60,7,59.7,7,59.6,7c-0.2,0-0.3-0.1-0.5-0.3S58.8,6.2,58.8,6c0-0.3,0.7-0.5,2-0.7C61,4.5,61,3.8,61,3.3c0-0.3,0.1-0.4,0.4-0.4
	c0.2,0,0.5,0.1,0.8,0.4s0.5,0.5,0.5,0.8s-0.1,0.6-0.2,1.1c0.4,0,0.7,0,0.9,0c0.6,0,0.9,0.1,0.9,0.4c0,0.2-0.2,0.3-0.5,0.5
	C63.6,6.2,63.1,6.4,62.3,6.5z M65.9,2c0-0.4,0.1-0.5,0.4-0.5c0.2,0,0.5,0.2,0.8,0.6s0.4,0.7,0.4,1s-0.1,0.6-0.2,1.1
	c0,0.5-0.2,0.9-0.3,1.3s-0.3,1-0.5,1.7S66.1,8.5,66,8.8c0.5-1.1,1.1-2,1.7-2.7s1.1-1,1.5-1c0.3,0,0.6,0.2,0.9,0.7s0.5,0.9,0.5,1.2
	c0,0.4-0.1,0.9-0.2,1.6c-0.1,0.7-0.4,1.4-0.7,2c-0.3,0.6-0.7,1-1,1s-0.4-0.2-0.4-0.6c0-0.3,0.1-0.8,0.3-1.4C68.8,8.6,69,8,69,7.8
	s0-0.3-0.1-0.3c-0.5,0-1.2,0.8-2.1,2.4c-0.3,0.6-0.6,1-0.8,1.2c-0.2,0.3-0.4,0.4-0.6,0.4S65,11.3,64.7,11c-0.3-0.3-0.4-0.6-0.4-0.7
	s0-0.4,0.1-0.8c0.1-0.3,0.2-0.8,0.3-1.4c0.1-0.6,0.4-1.7,0.7-3.4S65.9,2.2,65.9,2z M79.9,5.4c0.1-0.2,0.2-0.3,0.4-0.3
	c0.2,0,0.4,0.2,0.7,0.5s0.4,0.6,0.4,0.9c0,0.1-0.2,0.7-0.6,1.9c-0.4,1.1-0.7,2-0.9,2.7c-0.1,0.4-0.3,0.5-0.6,0.5
	c-0.2,0-0.3-0.1-0.4-0.2c-0.1-0.1-0.2-0.3-0.2-0.6s0.1-0.6,0.2-1.1c-0.9,1.2-1.6,1.9-2.1,1.9c-0.3,0-0.6-0.2-1-0.5s-0.6-0.7-0.6-1
	c0-0.8,0.2-1.8,0.7-3.1s0.9-1.9,1.3-1.9c0.2,0,0.5,0.1,0.6,0.3s0.3,0.5,0.3,0.7c0,0.1-0.1,0.4-0.3,0.8c-0.6,1.4-1,2.4-1,2.9
	c0,0.1,0,0.1,0.1,0.1s0.4-0.2,0.7-0.6c0.3-0.4,0.7-1,1.2-1.7S79.6,6.1,79.9,5.4z M85.2,5.1c0.3,0,0.6,0.2,0.9,0.6s0.5,0.7,0.5,1
	c0,0.2-0.1,0.3-0.3,0.3c-0.1,0-0.2,0-0.4-0.1c-0.2-0.2-0.4-0.2-0.6-0.2s-0.5,0.1-0.9,0.2C84,7,83.8,7.2,83.8,7.4
	c0,0.1,0.1,0.2,0.3,0.4c0.2,0.2,0.5,0.3,0.7,0.5c0.3,0.2,0.5,0.4,0.7,0.7s0.3,0.6,0.3,1s-0.3,0.7-0.8,1.1c-0.5,0.4-1.1,0.5-1.8,0.5
	s-1.3-0.2-1.8-0.5s-0.7-0.6-0.7-1c0-0.3,0.1-0.5,0.4-0.5c0.1,0,0.2,0,0.4,0.1c0.4,0.2,0.9,0.4,1.6,0.4S84,10,84,9.8
	s-0.1-0.4-0.4-0.6s-0.5-0.4-0.8-0.6S82.3,8.2,82,8c0.2-0.2,0-0.4,0-0.7c0-0.5,0.4-0.9,1.2-1.5C84.1,5.3,84.7,5.1,85.2,5.1z
	 M87.7,10.4c0-0.2,0.1-0.5,0.3-0.7c0.2-0.2,0.4-0.3,0.6-0.3s0.4,0.2,0.7,0.7c0.3,0.5,0.4,0.8,0.4,1c0,0.1-0.1,0.2-0.2,0.4
	c-0.2,0.1-0.3,0.2-0.5,0.2c-0.3,0-0.5-0.2-0.8-0.5C87.9,10.9,87.7,10.6,87.7,10.4z M89,1.7c0-0.2,0.1-0.4,0.4-0.4s0.6,0.2,1,0.6
	S91,2.5,91,2.7c0,0.6-0.2,1.7-0.6,3.4s-0.7,2.6-1,2.6c-0.2,0-0.4-0.1-0.7-0.4c-0.2-0.2-0.3-0.5-0.3-0.7c0-0.1,0-0.4,0.1-0.8
	c0.2-0.4,0.3-1.1,0.4-2.1S89,2.8,89,1.7z"/>
</svg>
